<svg id="Слой_1" xmlns="http://www.w3.org/2000/svg" viewBox="0 0 22 22"><style>.st0{fill:#0C60AB;} .st1{fill:#CDD1D4;} .st2{fill-rule:evenodd;clip-rule:evenodd;fill:#F8F7F7;} .st3{fill:#035499;} .st4{fill-rule:evenodd;clip-rule:evenodd;fill:#F0F0F0;} .st5{fill:#054781;} .st6{fill-rule:evenodd;clip-rule:evenodd;fill:#1161AB;} .st7{fill-rule:evenodd;clip-rule:evenodd;fill:#CDD1D4;} .st8{fill-rule:evenodd;clip-rule:evenodd;fill:#06559A;} .st9{fill-rule:evenodd;clip-rule:evenodd;fill:#054781;} .st10{fill:#FFFFFF;}</style><path class="st0" d="M19 1c1.1 0 2 .9 2 2v16c0 1.1-.9 2-2 2H3c-1.1 0-2-.9-2-2V3c0-1.1.9-2 2-2h16m0-1H3C1.3 0 0 1.3 0 3v16c0 1.7 1.3 3 3 3h16c1.7 0 3-1.3 3-3V3c0-1.7-1.3-3-3-3z"/></svg>